# xmcd CD database file
#
# Track frame offsets:
#	150
#	11175
#	29158
#	40362
#	53544
#	68156
#	81271
#	91381
#	108960
#	124359
#
# Disc length: 1827 seconds
#
# Revision: 0
# Processed by: cddbd v1.5.2PL0 Copyright (c) Steve Scherf et al.
# Submitted via: CDex 1.51
#
DISCID=8707210a
DTITLE=Tom Eckert - It's All Been Done (Branson)
DYEAR=2006
DGENRE=Country
TTITLE0=San Antonio Rose
TTITLE1=I Believe In Love
TTITLE2=He'll Have To Go
TTITLE3=Amarillo By Morning
TTITLE4=Faded Love
TTITLE5=Make The World Go Away
TTITLE6=Release Me
TTITLE7=For the Good Times
TTITLE8=Margaritaville
TTITLE9=Are You Lonesome Tonight (Alt lyrics)
EXTD=YEAR: 2006
EXTT0=
EXTT1=
EXTT2=
EXTT3=
EXTT4=
EXTT5=
EXTT6=
EXTT7=
EXTT8=
EXTT9=
PLAYORDER=
